<svg xmlns="http://www.w3.org/2000/svg" viewBox="0 0 124 40" width="120px" height="40px"><path d="M108.77,3.77l.6.49.34.74a.83.83,0,0,1-.18.22,13.24,13.24,0,0,1-2.14,1.21c-.42.2-.75.58-1.24.62-.23.29-.64.16-.89.35a2,2,0,0,1-.82.26c-.23.07-.45.2-.69.26a7.72,7.72,0,0,1-.82.14l-.26.61c.15.44-.11.92-.08,1.42s.1,1,.16,1.58l.52.31.83.53c.39,0,.76.24,1.16.13s.78.1,1.17.09.8-.19,1.18,0a.64.64,0,0,1,.88-.1l.18-.13c.59-.3,1.07,0,1.57,0,.12,0,.23.15.34.23l.08.72-.29.35-.53-.19-3.44.37c-.3-.05-.56-.22-.86-.11s-.56-.11-.85-.12l-.26.2-1.14-.13L102,12.81l-.26-.6a1.26,1.26,0,0,0,0-1.12,2.65,2.65,0,0,1-.2-1.57,1.7,1.7,0,0,0,.06-.31,11.41,11.41,0,0,0-.15-1.31c-.08-.44.14-.85.1-1.28a3.31,3.31,0,0,1,0-1.29,3.67,3.67,0,0,0-.11-1.18l-.22-.33-.14-1.22a.39.39,0,0,1,.49-.15c.54.21,1.12.39,1.29,1.08-.22.34,0,.82-.21,1.2l.22,2.11.3.21a2.06,2.06,0,0,0,1.27-.28c.53-.28,1.12-.47,1.64-.76A8.77,8.77,0,0,0,108.77,3.77Z"/><path d="M84.29,3.71l1.44.71c0,.2.07.42,0,.56a3.16,3.16,0,0,0-.21,1.32,8.75,8.75,0,0,1-.3,1.42A2,2,0,0,0,85.1,8,5,5,0,0,1,85,9.27a3.9,3.9,0,0,0-.13,1.35c0,.42,0,.84,0,1.26,0,.19,0,.38,0,.56l-.37.35c-.18,0-.4.07-.55,0a3.39,3.39,0,0,0-1.78-.19c-1.07,0-2.14,0-3.17,0-1,.47-2,.12-2.9.31a2.44,2.44,0,0,1-1-1.31l.23-.29h.89l.88.42,3.59-.05a6.63,6.63,0,0,1,1.76-.5,4,4,0,0,0,.94-.28l.3-.58c.09-.69-.18-1.4.23-2.09V7.08l.21-.42c0-.47,0-.92,0-1.38-.19,0-.27.13-.45.08a5.31,5.31,0,0,0-2.34.08,3.43,3.43,0,0,1-.56.07l-3,0a2.78,2.78,0,0,1-.5.21,2.08,2.08,0,0,1-.52,0A3.63,3.63,0,0,1,75.41,4.2c0-.22-.08-.46.17-.68l.47.21a4.7,4.7,0,0,0,2.06.46c1.06,0,2.13,0,3.22-.05l.41-.2A12.91,12.91,0,0,0,84.29,3.71Z"/><path d="M93.77,7.77,94.86,8l2.86-.32.86.38.08.69c-.13,0-.27.13-.38.1-.29-.07-.57-.18-.86-.28-.92.1-1.84.22-2.77.31a2.53,2.53,0,0,1-1.31,0,1.62,1.62,0,0,0-.81,0,2.17,2.17,0,0,1-1.31,0c-.08-.05-.2,0-.3,0-.62.07-1.23.14-1.85.23a2.16,2.16,0,0,0-.5.21A17.27,17.27,0,0,1,87.4,8a.58.58,0,0,1,0-.52l.35-.09.55.35c.7-.09,1.41.15,2.12,0,.26,0,.51.2.79.11a3.71,3.71,0,0,0,1.52,0Z"/><path d="M119.12,7.77l1.08.28,2.86-.31.87.39.07.69c-.13,0-.27.13-.38.1-.29-.07-.57-.19-.86-.29-.92.1-1.84.21-2.77.29a2.43,2.43,0,0,1-1.31,0,1.73,1.73,0,0,0-.81,0,2.1,2.1,0,0,1-1.31,0,.52.52,0,0,0-.3,0c-.62.06-1.23.12-1.85.21a2.45,2.45,0,0,0-.5.21A15.3,15.3,0,0,1,112.75,8a.53.53,0,0,1,0-.52l.35-.09.55.35c.7-.09,1.4.15,2.12,0,.25,0,.5.2.79.11a3.84,3.84,0,0,0,1.51,0Z"/><path d="M37.31,5.18,37,5H35l-1.16.41h-.92l-.28.25a1,1,0,0,0-.07.24l0,7.35a8.18,8.18,0,0,0,0,1,5.54,5.54,0,0,0,.21.8c-.07.34-.33.49-.57.68h-1a.57.57,0,0,1-.17-.53c0-.84,0-1.69,0-2.53a1.46,1.46,0,0,1,.15-.73,1,1,0,0,0,.06-.53l0-6.15a1.1,1.1,0,0,0-.2-.83l.27-.3c.59-.13,1,.24,1.45.42H34.2A8.31,8.31,0,0,0,36.14.63a4.21,4.21,0,0,1,1.06,0l.62.3v.42c-.69.85-1.41,1.66-2.06,2.53-.09.12-.17.24,0,.41.4.22.94-.13,1.33.24l.31-.18c.47.08,1-.12,1.47.15l.3-.16.4.2H41.2c.4-.26.72-.75,1.28-.87.07,0,.16,0,.21,0,.36.24.71.5,1.05.74,0,1.42,0,2.81,0,4.2,0,.23-.27.43-.06.67-.24.18.15.49-.13.66,0,.29-.08.59.14.83l-.16.3c.05.52-.12,1.08.2,1.58V14l-.31.89-.47.45c-.92-.2-1.6-.86-2.48-1v-.48a1.6,1.6,0,0,1,1.38.14l.34-.31V11.82l.22-.43V5.34L42.05,5l-.82.23Zm-3.24,5.61c0,.28.09.58-.12.84a2.12,2.12,0,0,1,.14.82.64.64,0,0,0,.09.22l.22.21.37.26c.14-.11.3-.18.34-.29a1.55,1.55,0,0,1,1.09-1c.31.14.64-.12,1-.07a7.77,7.77,0,0,0,1.08,0,5.3,5.3,0,0,1,.59.27,4.84,4.84,0,0,1,.47.38c.33,0,.63.1.9-.14,0-1.34,0-2.68,0-4A10.05,10.05,0,0,0,40,6.91c0-.14-.22-.26-.35-.41l-.92.43a8.89,8.89,0,0,0-2.55.21,2.75,2.75,0,0,1-1,0l-.78-.41L34.08,7C34.08,8.31,34.08,9.55,34.07,10.79Zm1.45-2.88a5.44,5.44,0,0,0,1-.19,2.87,2.87,0,0,1,1-.11h1.08l.39.37c0,1,0,2,0,3a.56.56,0,0,1-.52.18H37.07a1.4,1.4,0,0,0-1,.17c-.13.1-.41,0-.61,0l-.31-.62V9.54l.35-.44c-.1-.4-.1-.4,0-.68S35.29,8.15,35.52,7.91Z"/><path d="M50.88,7.57a2.93,2.93,0,0,1,.81-.77c.34.1.48.36.7.62a3.16,3.16,0,0,1-.4.72,6,6,0,0,0-.92,1.49c-.12.5.33.94.21,1.4a3.36,3.36,0,0,0,2,1.27c.2.07.4.12.67.2a1.39,1.39,0,0,1,1-.2,5.17,5.17,0,0,0,1-.2c.36,0,.73,0,1.1,0h1.11l.32.34v.69l-.25.24c-.53.12-1,0-1.45.24-.23.12-.58,0-.87,0a3.25,3.25,0,0,0-1.06.16,3.83,3.83,0,0,1-1.23,0l-.79-.38-.92,0A4.19,4.19,0,0,1,50.22,12,8.15,8.15,0,0,0,50,10.88a1.4,1.4,0,0,1,.09-1.14c.25-.55.36-1.16.65-1.7A2.18,2.18,0,0,0,50.88,7.57Zm-.24-4.71c.18.76.83,1.07,1.37,1.46a4.7,4.7,0,0,0,.71.33l.48-.22h1.31l.28.25L54.25,5l-.53.37a.79.79,0,0,0,.13.54,8.72,8.72,0,0,0,3.56-1.87V3.65l-.72-.49-1.43.56c-.94-.37-1.87-.08-2.82-.26l-1-1C50.88,2.44,50.87,2.44,50.64,2.86Z"/><path d="M63.71,8h-.82l-.49-.66a7.25,7.25,0,0,1,0-.92c.27-.33.52-.12.8.06a7.75,7.75,0,0,0,.83,0,1.59,1.59,0,0,0,.85-.15c.24-.16.56,0,.84-.18A1.52,1.52,0,0,1,66.35,6h1.86a4.24,4.24,0,0,1,2,1.19c0,.18.07.35.12.52a.64.64,0,0,0,.1.18.86.86,0,0,0-.08.93,1.18,1.18,0,0,1,.05,1.05,4.52,4.52,0,0,0-.17,1,9.2,9.2,0,0,0-.81,1.17,2.63,2.63,0,0,1-.79.89,18.46,18.46,0,0,1-2.74,1.71l-.2.11c-.28,0-.57.08-.83,0a.41.41,0,0,1,0-.52,3,3,0,0,0,1.62-.77,15.72,15.72,0,0,0,2.09-1.9,9.87,9.87,0,0,0,.79-1.07V8.38l-.57-.64-1.45-.59H65.45Zm4.13-4.4a.84.84,0,0,0,.67-.06l.26-.29,0-.44L68,2.1H66.15c-.61-.23-1-.67-1.68-.64l-.33.31A7.24,7.24,0,0,0,67.84,3.62Z"/><path d="M18.92,14.36h-.31c-.2-.13-.15-.32-.14-.54A6.4,6.4,0,0,1,19,13.2a5.56,5.56,0,0,0,1.24-1.77c.47-.93.94-1.86,1.33-2.83a40.06,40.06,0,0,0,1.45-4A4.28,4.28,0,0,0,23.27,3c0-.29,0-.59,0-.91C23.6,1.8,24,2,24.34,2l1,.48a1.22,1.22,0,0,1,0,.84,13.33,13.33,0,0,0-.47,1.86,5.33,5.33,0,0,1-.22.71,34.1,34.1,0,0,1-1.74,3.34c-.26.47-.49,1-.75,1.43-.38.7-1,1.25-1.41,1.92-.29.45-.82.73-1,1.26Z"/><path d="M14.42,11.7l.67,1a4.79,4.79,0,0,0-.74.28,1.8,1.8,0,0,1-.89.09H12.7c-.36.37-.1.83-.31,1.22a3.48,3.48,0,0,0-.14,1.17,3.36,3.36,0,0,1-.88.83c-.45-.37-.91-.7-1.31-1.08a3.18,3.18,0,0,1-.51-.73.22.22,0,0,1,0-.11s0-.06,0-.12c.57-.26,1,.2,1.45.36l.28-.26v-.95a.6.6,0,0,0-.21-.09c-.57,0-1.14,0-1.71,0a4.27,4.27,0,0,1-.8,0c-.29-.07-.54.34-.82,0H6.94l-1,.63a1.51,1.51,0,0,1-.81,0A.74.74,0,0,1,5,13.21a3.77,3.77,0,0,0,.2-.75,2.29,2.29,0,0,1,.24-.74,2.91,2.91,0,0,0,.22-1.59c-.47-.12-1,0-1.45-.12-.33-.29-.33-.29-.34-.85l.5-.42,1.14.39.35-.28A13.82,13.82,0,0,0,6,7.27c.15-.23.32-.5.16-.73a1.87,1.87,0,0,1-.19-1c-.29.11-.16.33-.19.41-.2.41-.57.43-.85.65L4.67,6.4a.71.71,0,0,1,0-.62,2.6,2.6,0,0,1,.28-.49,6.77,6.77,0,0,0,1-2,15.5,15.5,0,0,0,.52-1.66c-.06-.12-.14-.28-.21-.45v-1C6.38,0,6.57,0,6.76,0h1l.52.54c-.08.37-.14.7-.23,1s-.17.55-.26.85c.14.06.25.09.34.14a3.24,3.24,0,0,1,.33.2l3.29,0,1.62-.66h.49c.07.07.18.13.23.22.14.26.26.53.41.83l-.25.43c-.09.06-.13.1-.16.09a2.84,2.84,0,0,1-1.23-.08,1.15,1.15,0,0,0-.31-.11c-.87,0-1.75,0-2.62,0-.24,0-.47.18-.71,0a.22.22,0,0,0-.22,0,3.88,3.88,0,0,1-1.71.21,6.09,6.09,0,0,0-1.1,1.57c.24.35.53.18.77.22.4-.31.87-.18,1.32-.2s1,.17,1.44-.14A3.42,3.42,0,0,0,11,5.29c.7.08,1.29-.33,2.07-.29l.45.48L13.3,6A6.7,6.7,0,0,1,13,8.36l.31.34.76-.37c.42-.1.93.07,1.39-.22.15-.1.43,0,.64,0a1.58,1.58,0,0,1,.08,1l-.57.34h-.87l-.34-.2c-.35.23-.87.13-1.19.65a5.93,5.93,0,0,1,0,.72c0,.25-.15.49-.19.74A5.3,5.3,0,0,0,13,12c.2.22.32-.09.49-.06a1.35,1.35,0,0,0,.42-.1ZM9,6H7.63l-.55.54c0,.56,0,1.1,0,1.63,0,.18,0,.38.16.53h1l.93-.32v-1l.24-.46Zm1.31,3.42c-.13.17-.29.28-.29.4,0,.57-.32,1.08-.28,1.65a2.34,2.34,0,0,1-.12.62l1.27.31.62-.31s0-.06.08-.11c-.12-.75.5-1.48.11-2.3a4.91,4.91,0,0,1-.67-.05A7.27,7.27,0,0,1,10.35,9.41Zm1.72-1.05a4.5,4.5,0,0,0-.31-2.58l-.6.2c-.21.06-.46-.07-.66.2.17.4-.22.73-.2,1.15a5.45,5.45,0,0,0,0,1.39,4.94,4.94,0,0,1,.68,0,7.5,7.5,0,0,1,.75.19ZM6.85,12.3l.36.28c.26-.09.48-.13.68-.22A5.68,5.68,0,0,0,8.4,12a2.32,2.32,0,0,1,.19-.94,4.22,4.22,0,0,0,.27-.73.56.56,0,0,0-.17-.74c-.52.34-1.14.13-1.77.23-.1.34-.2.69-.31,1s.2.56.2.86S6.83,12.06,6.85,12.3ZM2.78,7.9c-.11.48.06,1-.25,1.36L2.47,10.6c-.23.28-.27.67-.67.83-.49,0-1-.54-1.6-.11a1.66,1.66,0,0,1,.15.39,6.27,6.27,0,0,0,.71,2.11c0,.42.32.76.27,1.2,0,.06,0,.13.08.2l.45.21.81-.27V13.9l.2-.34A8.42,8.42,0,0,1,3,11.72a12.31,12.31,0,0,0,.17-1.9s0-.09,0-.11c.32-.4.1-.89.24-1.32s.69-.8.66-1.43l-.44-.4C3.1,6.94,3,7.51,2.78,7.9ZM3,5.85a1,1,0,0,0,0-.18l-.3-.6c-.32-.19-.62-.35-.89-.54A4.74,4.74,0,0,0,.23,4H.05a1.56,1.56,0,0,0,.05,1l.29.16.37.73a2.94,2.94,0,0,0,.39.67c.21.21.17.48.3.71l1,.34C2.59,7,2.78,6.4,3,5.85ZM1.53,3.2a3.23,3.23,0,0,0,.37.34c.22.13.46.24.69.35.56-.37.47-1,.66-1.45A5.76,5.76,0,0,0,1.36,1a.41.41,0,0,0-.63.14A11.37,11.37,0,0,1,1.53,3.2Z"/><path d="M15.15,24.84l.25,0h.14a0,0,0,0,0,0,0,1.62,1.62,0,0,1,0-.18,1.09,1.09,0,0,0,0-.52c-.05-.07-.29-.09-.41-.09a.78.78,0,0,0-.26,0s0,0-.05.11a1.15,1.15,0,0,0,0,.59C14.89,24.81,15,24.84,15.15,24.84Z"/><path d="M7.75,30.65a.46.46,0,0,0,.25.06h.2l.33,0a2.69,2.69,0,0,0,.4,0h.19a1.32,1.32,0,0,0,.75-.54l0,0,.09-.11a1,1,0,0,0,.26-.42.51.51,0,0,0,0-.21,1.13,1.13,0,0,1,0-.18.31.31,0,0,1,0-.08s0-.05,0-.07a5.13,5.13,0,0,0,0-1c0-.16,0-.32,0-.47s0-.35,0-.52,0-.29,0-.44,0-.28,0-.42v-.11a.6.6,0,0,1,0-.19,1.84,1.84,0,0,0,0-.41.18.18,0,0,0-.18-.15l-.14,0-.13,0H9.63c-.05,0-.06,0-.09.08a.54.54,0,0,0,0,.22v.05l-.08-.07a1.09,1.09,0,0,0-.27-.22,1,1,0,0,0-.35-.07H8.2a.45.45,0,0,1-.24,0h0s0,0,0,0-.16.16-.31.22a.78.78,0,0,0-.26.13,1.19,1.19,0,0,0-.09.15.67.67,0,0,1-.11.18h0a.39.39,0,0,0-.14.27.64.64,0,0,0,0,.2A2.33,2.33,0,0,1,6.9,27l0,.06a.46.46,0,0,0,0,.23.3.3,0,0,0,0,.18l0,.08a1.92,1.92,0,0,1,0,.22.52.52,0,0,0,.06.29l.14.26c.09.17.18.34.29.51a.71.71,0,0,0,.35.26l.07,0a.77.77,0,0,0,.33.06,1.09,1.09,0,0,1,.26,0l.05,0a.18.18,0,0,0,.09,0h0a.15.15,0,0,0,.1-.06l.07-.05h.11l.1,0H9A1,1,0,0,0,9.32,29a.94.94,0,0,1,.18-.12V29a1.23,1.23,0,0,1-.12.8A.41.41,0,0,1,9,30H8.81l-.08.07s0,.05-.06.05a.35.35,0,0,1-.14,0,1.11,1.11,0,0,1-.68-.34.94.94,0,0,1-.1-.14.33.33,0,0,0-.26-.18l-.15,0-.28,0H7a0,0,0,0,0,0,0s0,0,0,0a1.17,1.17,0,0,0,.36.79l.1.05a.19.19,0,0,1,.09,0,.34.34,0,0,1,.09.08A.94.94,0,0,0,7.75,30.65Zm-.11-3.26a.78.78,0,0,0,0-.14.91.91,0,0,1,0-.32.61.61,0,0,1,.07-.17l0-.08,0-.05a1.45,1.45,0,0,1,.16-.33.51.51,0,0,1,.23-.15l.07,0A.81.81,0,0,1,8.53,26a.88.88,0,0,1,.84.51,3.13,3.13,0,0,1,.19.7v0a.79.79,0,0,1,0,.34.31.31,0,0,1-.08.15.41.41,0,0,0-.1.29.21.21,0,0,1-.08.18,1.28,1.28,0,0,1-.26.2,1.46,1.46,0,0,1-.57.21l-.12,0a1.2,1.2,0,0,1-.62-.53,1.08,1.08,0,0,1-.09-.51A2.09,2.09,0,0,0,7.64,27.39Z"/><path d="M3,27.76h.15l.86,0h.1l.25,0c.11,0,.16,0,.18,0a.53.53,0,0,1,.06.21.87.87,0,0,0,0,.1,1.56,1.56,0,0,0,.11.26,1.54,1.54,0,0,1,.11.3,1.45,1.45,0,0,0,.11.29,1.07,1.07,0,0,0,.19.28l0,0s0,0,.09,0H6a0,0,0,0,0,0,0s0,0,0,0a1.38,1.38,0,0,0-.16-.37,1.51,1.51,0,0,1-.11-.22,2.47,2.47,0,0,1-.1-.29A1.48,1.48,0,0,0,5.55,28a3.84,3.84,0,0,0-.18-.35A7,7,0,0,1,5,26.87a1.72,1.72,0,0,1-.07-.21,2.44,2.44,0,0,0-.11-.32,2.39,2.39,0,0,0-.13-.21,3.07,3.07,0,0,1-.17-.31,2.09,2.09,0,0,0-.08-.23,3.2,3.2,0,0,0-.17-.43,1.86,1.86,0,0,0-.1-.2A1.37,1.37,0,0,1,4,24.61l0-.06c0-.15-.09-.38-.23-.43a.65.65,0,0,0-.22,0H3.26l-.22,0H3l-.12.28c0,.12-.11.25-.17.37a1.84,1.84,0,0,0-.15.47c0,.07,0,.13,0,.2a.64.64,0,0,0,0,.07.7.7,0,0,1-.06.19.86.86,0,0,1-.07.1.41.41,0,0,0-.1.21.76.76,0,0,0,0,.15.86.86,0,0,1,0,.16.75.75,0,0,1-.12.21l-.08.13a3.31,3.31,0,0,0-.27.72l-.09.28c-.14.42-.3.85-.51,1.33l0,.05c0,.07-.08.14-.06.2s.15.11.25.11h.08c.29,0,.46-.05.53-.13a.81.81,0,0,0,.11-.36c0-.08,0-.16.05-.21a1.67,1.67,0,0,1,.08-.2.89.89,0,0,0,.08-.17.24.24,0,0,0,0-.16V28a.26.26,0,0,1,.28-.28H3ZM2.76,27a.11.11,0,0,1,0-.08.27.27,0,0,1,.06-.12l0-.08c0-.06.07-.12.1-.19A2.43,2.43,0,0,0,3.18,26v-.09a.45.45,0,0,1,0-.11c0-.06,0-.11,0-.16s0-.09,0-.14a.25.25,0,0,1,0-.07.84.84,0,0,1,.19-.46l.06.2c0,.15.09.29.13.43l0,.07c0,.05,0,.11.05.16a.47.47,0,0,0,.08.14l.06.09A.77.77,0,0,1,4,26.3a1.55,1.55,0,0,0,0,.23c.06.14.12.27.19.4s0,.11.08.16H2.76A.16.16,0,0,0,2.76,27Z"/><path d="M39.83,28.69a3.25,3.25,0,0,0,.81.45h.17a2.29,2.29,0,0,0,1.27-.26c.14-.09.71-.56.71-.85a.15.15,0,0,0-.06-.14.53.53,0,0,0-.3-.07.59.59,0,0,0-.3.06.74.74,0,0,0-.18.21l-.06.07a.4.4,0,0,0-.07.13.41.41,0,0,1-.08.12,1.19,1.19,0,0,1-.56.21H41.1a1,1,0,0,1-.58-.21,1.54,1.54,0,0,1-.54-1h.7a.19.19,0,0,0,.08,0,.13.13,0,0,1,.08,0l.07,0,.08,0H42.3l.11,0h0l.09,0,.08,0h.19a0,0,0,0,0,0,0h0c0-.06,0-.11,0-.16l0-.32a1.2,1.2,0,0,0-.06-.33.5.5,0,0,1,0-.13v-.05a.62.62,0,0,0-.18-.35,3,3,0,0,0-.33-.27L42,25.57l-.26-.2,0-.05a.38.38,0,0,0-.16-.11h0l-.09,0h-.86a1.81,1.81,0,0,0-.6.31.41.41,0,0,0-.11.07,1.23,1.23,0,0,0-.49.75l0,.14a2.68,2.68,0,0,0-.1.61,1.77,1.77,0,0,0,.16.88A1.38,1.38,0,0,0,39.83,28.69Zm2.11-2.32c0,.12.05.23.07.34v0l-.09,0a.48.48,0,0,1-.14,0h-.21l-.22,0-.29,0h0l-.18,0-.19,0h-.24l-.34,0s0-.05,0-.07a.58.58,0,0,1,0-.26,1.13,1.13,0,0,1,.2-.43,1,1,0,0,1,.7-.24h.23l.17,0a1.19,1.19,0,0,1,.33.22l0,0A.51.51,0,0,1,41.94,26.37Z"/><path d="M32.28,29.08a.91.91,0,0,0,.36.06h.11l.17,0a.88.88,0,0,0,.29-.06,1.08,1.08,0,0,0,.35-.19l0,0,.07-.05c.07-.07.2-.18.27-.18h0s0,.1,0,.17S34,29,34,29s0,0,.12,0a1.79,1.79,0,0,0,.39,0c.09-.06.08-.28.06-.53a.82.82,0,0,1,0-.14V26.67c0-.19,0-.37,0-.56v-.06a.25.25,0,0,1,0-.09l0,0a.09.09,0,0,0,0-.05.09.09,0,0,0,0-.07s0,0,0,0a.64.64,0,0,1,0-.09.63.63,0,0,0-.08-.35,1.25,1.25,0,0,0-.42-.06H34c-.09,0-.1.07-.1.13v.05a3.74,3.74,0,0,0,0,.82c0,.13,0,.27,0,.4s0,.24,0,.36a4.56,4.56,0,0,1,0,.74.83.83,0,0,1-.43.59l0,0a.53.53,0,0,1-.31.15H33a.75.75,0,0,1-.35-.08l-.11,0a.66.66,0,0,1-.28-.19,1.17,1.17,0,0,1-.13-.45,2.57,2.57,0,0,1,0-.62c0-.11,0-.21,0-.31l0-1.28a.13.13,0,0,1,0-.06c0-.07,0-.12-.06-.17a.38.38,0,0,0-.21-.05l-.23,0h-.1c-.1,0-.15,0-.18.13a1.21,1.21,0,0,0,0,.38c0,.06,0,.12,0,.17s0,.25,0,.37,0,.51,0,.76v.06a1,1,0,0,0,0,.35,2.71,2.71,0,0,1,0,.4v.19a.48.48,0,0,0,0,.27,1.06,1.06,0,0,0,.28.28l.13.1.07.07A.83.83,0,0,0,32.28,29.08Z"/><path d="M24,28.7a.92.92,0,0,1,.1.41v0h0l.53,0h0s0,0,0,0a.46.46,0,0,1,0-.26l0-.13a4,4,0,0,0,0-.6c0-.11,0-.22,0-.33s0-.41,0-.61,0-.21,0-.31v-.09c0-.27,0-.54,0-.81a1.54,1.54,0,0,0,0-.3.59.59,0,0,1,0-.13c0-.14-.06-.18-.16-.18H24.2c-.12,0-.24,0-.27.17a1.27,1.27,0,0,0,0,.2.31.31,0,0,1,0,.09v1.45a5.61,5.61,0,0,1,0,.58.69.69,0,0,1-.17.46,1.57,1.57,0,0,1-.37.22.67.67,0,0,1-.26.05h-.26a.77.77,0,0,1-.27,0c-.29-.09-.32-.4-.35-.67v-.1s0-.08,0-.12a.31.31,0,0,1,0-.11.29.29,0,0,0,0-.09,2.09,2.09,0,0,0,0-.25.69.69,0,0,1,0-.2v0a.22.22,0,0,0,0-.08s0,0,0,0l0,0a.16.16,0,0,1,0-.09.36.36,0,0,0,0-.1.55.55,0,0,0,0-.18,1.1,1.1,0,0,1,0-.18s0-.09,0-.16c0-.27.05-.66-.1-.73l-.14,0a1.84,1.84,0,0,0-.37.05c-.19,0-.18.16-.17.31v0a.9.9,0,0,0,0,.18.91.91,0,0,1,0,.23c0,.11,0,.21,0,.31,0,.28,0,.55,0,.82s0,.27,0,.4a1.33,1.33,0,0,1,0,.2,1.56,1.56,0,0,0,.05.55.48.48,0,0,0,.21.19l.06,0,.56.37.06,0a.71.71,0,0,0,.21.11h.14a1.87,1.87,0,0,0,.35,0A2,2,0,0,0,24,28.7Z"/><path d="M18.72,29.24a1.57,1.57,0,0,0,1.42-.87l.06-.1a.7.7,0,0,0,.15-.3.83.83,0,0,0-.14-.22h-.39c-.08,0-.12,0-.17.12l0,.06a.59.59,0,0,0-.09.2.14.14,0,0,0,0,.09s0,.07,0,.09-.08.09-.35.27h0a.72.72,0,0,1-.35.08h-.06a1.11,1.11,0,0,1-.71-.31l0-.06a.53.53,0,0,1-.16-.28,3.14,3.14,0,0,1-.08-.46,2.88,2.88,0,0,1,0-.92l.06-.08.18-.25,0-.06a.55.55,0,0,1,.28-.24,1.14,1.14,0,0,1,.46-.07h0a1,1,0,0,1,.69.46l0,0a.4.4,0,0,0,.35.2h0c.07,0,.29,0,.32-.13a1.17,1.17,0,0,0-.33-.79,1.15,1.15,0,0,0-.35-.18l-.17-.06a2.08,2.08,0,0,0-.4-.14h-.09l-.13,0h-.42l-.14,0a1,1,0,0,0-.32.21l-.12.08-.08.06a2.17,2.17,0,0,0-.3.23,1,1,0,0,0-.21.6,1.84,1.84,0,0,1-.06.29.56.56,0,0,1,0,.12,1.41,1.41,0,0,0-.06.22,1.85,1.85,0,0,0,0,.47,2.4,2.4,0,0,0,.22.8,1.63,1.63,0,0,0,.66.62,1.19,1.19,0,0,0,.7.21Z"/><path d="M28.43,25.83h.22c.06,0,.09,0,.11.11a1.6,1.6,0,0,1,0,.38v1.44a1.63,1.63,0,0,0,.11.9,1.52,1.52,0,0,0,.52.49h.07a1.17,1.17,0,0,0,.26,0l.13,0H30a.44.44,0,0,0,.21,0,.23.23,0,0,0,.09-.21c0-.14-.1-.32-.21-.36a.44.44,0,0,0-.16,0,.39.39,0,0,1-.15,0,.68.68,0,0,1-.2-.18l0-.05V26.44s0-.08,0-.11a1.92,1.92,0,0,0,0-.24l0-.08a.14.14,0,0,1,0-.11c0-.06.08-.08.17-.08h.27a.2.2,0,0,0,.23-.15.43.43,0,0,0-.09-.33.18.18,0,0,0-.11,0h-.19c-.26,0-.35-.09-.34-.28l0-.5s0-.08,0-.12a.67.67,0,0,0,0-.28q0-.12-.12-.12a.62.62,0,0,0-.3.17l-.09.07-.07,0c-.08,0-.14.07-.16.11a.56.56,0,0,0,0,.26.34.34,0,0,1,0,.09s0,.08,0,.13a1.15,1.15,0,0,1,0,.26c0,.13,0,.14-.1.14h-.23a.12.12,0,0,0-.13.1.64.64,0,0,0,0,.31C28.32,25.8,28.35,25.83,28.43,25.83Z"/><path d="M27.09,28.8v0c0-.07,0-.14,0-.22a2.36,2.36,0,0,0,0-.46,1.24,1.24,0,0,0,0-.16.4.4,0,0,1,0-.32v0L27,24.68v-.1a1.21,1.21,0,0,0,0-.19.91.91,0,0,1,0-.17s0-.06,0-.1v0c0-.06,0-.11-.08-.15a1.08,1.08,0,0,0-.35,0,.85.85,0,0,0-.23,0c-.1,0-.09.12-.09.2a.2.2,0,0,1,0,.07l0,1.55c0,.11,0,.22,0,.34a3.51,3.51,0,0,0,0,.73l0,.06s0,0,0,0,0,.07,0,.1a.08.08,0,0,0,0,0s0,0,0,0a.19.19,0,0,0,0,.12.06.06,0,0,0,0,.05l0,0a1.22,1.22,0,0,1,0,.43.28.28,0,0,1,0,.09c0,.19,0,.38,0,.61v.22a.88.88,0,0,0,0,.37h0c0,.07,0,.08.1.09h.16l.26,0C27.09,29.07,27.09,29,27.09,28.8Z"/><path d="M13.51,26.19c.12,0,.15-.08.18-.16l0-.07s0,0,0-.07.11-.2.09-.25-.26-.2-.31-.22a1.12,1.12,0,0,0-.4-.06.73.73,0,0,0-.32.06.85.85,0,0,0-.2.22.71.71,0,0,1-.2.22v-.05c0-.13,0-.31-.1-.36h-.09l-.29,0h-.18c0,1.41.05,2.59.05,3.71a0,0,0,0,0,0,0h.12a1.66,1.66,0,0,0,.32,0c.15,0,.25,0,.29-.11a.72.72,0,0,0,0-.3v-.29c0-.12,0-.24,0-.36a1.28,1.28,0,0,0-.05-.27,1,1,0,0,1,0-.26,3.68,3.68,0,0,1,.06-.57s0-.08,0-.13a1.48,1.48,0,0,0,0-.21.6.6,0,0,1,.06-.37.71.71,0,0,1,.49-.33h0l.16.06a.47.47,0,0,0,.2.06Z"/><path d="M36.26,25.72c0,.19,0,.38,0,.57v2.47c0,.27.16.27.39.28h.18A.16.16,0,0,0,37,29a.69.69,0,0,0,0-.33v-.12c0-.06,0-.11,0-.17A1.16,1.16,0,0,0,37,28a.48.48,0,0,0-.05-.17.5.5,0,0,1,0-.13,1.07,1.07,0,0,1,0-.31,1,1,0,0,0,0-.15V27.1a1.14,1.14,0,0,1,0-.27.85.85,0,0,1,.13-.25.41.41,0,0,0,0-.09,1,1,0,0,0,.1-.17,2.3,2.3,0,0,1,.21-.33c.06-.07.09-.09.15-.09l.14,0A1.45,1.45,0,0,1,38,26l0,0h0v0s0-.05,0-.07l.06-.05a1,1,0,0,0,.15-.41c0-.12-.41-.23-.49-.25a1,1,0,0,0-.26,0,.56.56,0,0,0-.35.13,4,4,0,0,0-.28.3l-.1.11v-.08a.92.92,0,0,0-.07-.38l0,0h-.29a.37.37,0,0,0-.2,0c-.13.06-.1.2-.07.32S36.25,25.69,36.26,25.72Z"/><path d="M14.89,25.72a1.2,1.2,0,0,1,0,.2h0v.17l0,2.23a1.48,1.48,0,0,1,0,.21,2.26,2.26,0,0,0,0,.45c0,.13.06.16.16.16h.56l0,0a6.51,6.51,0,0,0,0-1.53l0-.59v-.2c0-.14,0-.27,0-.4a3.68,3.68,0,0,1,0-.47v-.1a.61.61,0,0,0,0-.27c-.05-.11-.29-.18-.48-.18s-.3.06-.31.17l0,.07A.31.31,0,0,1,14.89,25.72Z"/><path d="M43.76,29.05a.11.11,0,0,0,.08,0H44s.05,0,.05,0,0,.09,0,.13v.05a.34.34,0,0,1-.11.28.62.62,0,0,0-.09.12.26.26,0,0,0,0,.37h0L44,30a1.07,1.07,0,0,0,.32-.22.8.8,0,0,0,.13-.42v-.68a.11.11,0,0,1,0-.05c0-.09,0-.22-.06-.27a.22.22,0,0,0-.14,0l-.3,0h-.12c-.08,0-.11,0-.14,0s0,.06,0,.12a.19.19,0,0,1,0,.08.41.41,0,0,1,0,.1C43.71,28.85,43.71,29,43.76,29.05Z"/><path d="M66.9,34.76a2.09,2.09,0,0,0-.2-.55,2.23,2.23,0,0,0-.38-.37l-.19-.16,0,0a.9.9,0,0,0-.54-.31h-.15a1.91,1.91,0,0,0-.48.08,2.24,2.24,0,0,0-.66.28,2,2,0,0,0-.4.5,2.49,2.49,0,0,0-.29,1.25,3.87,3.87,0,0,1,0,.48l0,.36a2,2,0,0,0,0,.34,2.06,2.06,0,0,1,0,.26,1.16,1.16,0,0,1,0,.18c0,.07,0,.14,0,.21a.5.5,0,0,0,.11.16.44.44,0,0,1,.08.11.42.42,0,0,1,0,.16.46.46,0,0,0,0,.2.61.61,0,0,0,.22.15l.09.06.16.12a1.2,1.2,0,0,0,.55.3h.06l.38,0h0a.62.62,0,0,0,.25,0l.12,0a1.68,1.68,0,0,0,1-.88,1,1,0,0,0,.14-.5l0-.23a2.81,2.81,0,0,0,.06-.59,1.77,1.77,0,0,0,0-.23,3.42,3.42,0,0,0-.07-1.15Zm-2.58,1.85a.86.86,0,0,0,0-.24,1.08,1.08,0,0,1,0-.19,5,5,0,0,1,0-.55,4.63,4.63,0,0,1,.18-1,.77.77,0,0,1,.25-.38l.11-.1A.87.87,0,0,1,65.1,34l.16,0a1,1,0,0,1,.74.31,2,2,0,0,1,.29,1c0,.29,0,.58,0,.86v.34a1.15,1.15,0,0,1,0,.32.14.14,0,0,1,0,.06.57.57,0,0,0,0,.16V37a.23.23,0,0,1,0,.14,1.32,1.32,0,0,1-.59.77l-.12,0-.31,0H65a.72.72,0,0,1-.43-.34A1.75,1.75,0,0,1,64.32,36.61Z"/><path d="M71.58,34.4a1.58,1.58,0,0,0-.29-.51,2.14,2.14,0,0,0-.72-.47l-.07,0a2.44,2.44,0,0,0-.55-.11h-.06a1,1,0,0,0-.64.25,1.71,1.71,0,0,0-.36.35L68.8,34a1.38,1.38,0,0,0-.28.57.56.56,0,0,1,0,.12.58.58,0,0,1,0,.14,1.29,1.29,0,0,0-.1.42c0,.12,0,.25,0,.37s0,.23,0,.34a1.72,1.72,0,0,0,.07.68,3.25,3.25,0,0,1,.08.43l0,.23a1.68,1.68,0,0,0,.91,1.08.78.78,0,0,0,.44.11h.5a.74.74,0,0,0,.34-.06,2.14,2.14,0,0,0,.88-1l.06-.15a.94.94,0,0,0,.07-.22,1.06,1.06,0,0,0,0-.25v-.13a2.45,2.45,0,0,1,0-.27v0l0-.13a.59.59,0,0,0,0-.17v-.16a3.06,3.06,0,0,0-.16-1.32ZM69.14,37a.86.86,0,0,1,0-.45,4.28,4.28,0,0,0,0-.62,3.28,3.28,0,0,1,0-.7,2,2,0,0,1,0-.24c0-.07,0-.14,0-.21a1.17,1.17,0,0,1,.16-.41c.15-.29.29-.46.58-.46h.12a1,1,0,0,1,.78.46,2.19,2.19,0,0,1,.12.33c0,.06,0,.12,0,.17a.35.35,0,0,1,0,.22v0s0,0,0,0a.15.15,0,0,0,0,.07A4.83,4.83,0,0,0,71,36c0,.17,0,.34,0,.5a1.25,1.25,0,0,1,0,.38A.47.47,0,0,1,71,37a.5.5,0,0,0,0,.13s0,.07,0,.11a.34.34,0,0,1,0,.1.93.93,0,0,1-.73.64h0a1.21,1.21,0,0,1-.71-.36l-.1-.07a.87.87,0,0,0-.07-.17C69.23,37.26,69.18,37.13,69.14,37Z"/><path d="M86.12,38a.6.6,0,0,1,0-.19v-.17c-.05-.51-.06-1-.07-1.54v-.39a1.06,1.06,0,0,0-.05-.51,1.31,1.31,0,0,0-.61-.5,2.1,2.1,0,0,0-.72-.17h-.08a2.46,2.46,0,0,0-.47.1l-.28.07a1.28,1.28,0,0,0-.68.33,1.32,1.32,0,0,0-.25.75v0s0,0,0,0h0l.23,0a1.35,1.35,0,0,1,.37,0h0s0-.06,0-.08a.34.34,0,0,1,.16-.3l.13-.11a1,1,0,0,1,.32-.22h.11a1.65,1.65,0,0,1,.32,0h.08a1.06,1.06,0,0,1,.41.12.87.87,0,0,1,.23.53.29.29,0,0,1,0,.22.58.58,0,0,1-.29.05h-.22a1.28,1.28,0,0,0-.33.06l-.15,0a1,1,0,0,1-.3.07h-.13l-.3,0-.08,0a.63.63,0,0,0-.34.24l-.09.14c-.08.12-.17.25-.25.39a.73.73,0,0,0,.09.75v0a.72.72,0,0,0,.36.41.48.48,0,0,0,.23.05l.17,0a.91.91,0,0,0,.35.07h.14a.92.92,0,0,0,.4-.07l.23-.08.23-.09a1.41,1.41,0,0,0,.27-.18l.09-.07,0,.06c0,.12.08.26.21.31a.82.82,0,0,0,.28,0l.21,0h0s0,0,.07-.06,0-.11,0-.19ZM84.37,38A2,2,0,0,1,84,37.9l-.21,0-.08-.08a.9.9,0,0,1-.16-.19.94.94,0,0,1,0-.37,1.18,1.18,0,0,1,.5-.35,6.8,6.8,0,0,1,.68-.14,5.63,5.63,0,0,1,.66-.08s0,.08,0,.13a1.17,1.17,0,0,1,0,.46l0,.06a.41.41,0,0,0-.05.09.14.14,0,0,0,0,.06v0h0a.38.38,0,0,1-.17.11l-.08,0-.15.12a1.25,1.25,0,0,1-.43.24Z"/><path d="M80.77,34.88a0,0,0,0,0,0,0h0a.74.74,0,0,1-.28-.08l-.13-.06a2.41,2.41,0,0,0-.52-.11h-.08l-.22,0h-.17a.53.53,0,0,0-.33.15l-.07.05-.16.12-.33.24a.56.56,0,0,0-.2.28l0,0-.06.12a1.3,1.3,0,0,0-.13.3,1.11,1.11,0,0,0,0,.26.76.76,0,0,1,0,.15,1.64,1.64,0,0,1,0,.23,1.29,1.29,0,0,0,0,.64,2.36,2.36,0,0,0,.39.6l.18.23a1.37,1.37,0,0,0,1.15.46,2.71,2.71,0,0,0,.41,0l.24-.08.2-.07a.76.76,0,0,0,.32-.2l0,0,.09-.08a.84.84,0,0,0,.21-.21,1.1,1.1,0,0,0,.14-.33l.06-.15v0h0l-.19,0-.38,0h-.08s0,0-.07,0h0a.35.35,0,0,0-.07.11l-.05.07a1,1,0,0,1-.76.48h0a1.12,1.12,0,0,1-.84-.33,1.15,1.15,0,0,1-.25-.68s0-.09,0-.13l.5,0h.3l.24,0h0c.13,0,.26,0,.38,0a2.34,2.34,0,0,1,.38,0h.27l.32,0h.15a.22.22,0,0,0,.13,0l0,0s0,0,0-.06v-.06a1.94,1.94,0,0,0-.18-1A2.67,2.67,0,0,0,80.77,34.88Zm-2,1.18a1,1,0,0,1,0-.26.7.7,0,0,1,.15-.2l.08-.1a.83.83,0,0,1,.57-.29h.11a1.12,1.12,0,0,1,.65.18,1.24,1.24,0,0,1,.29.32,1,1,0,0,1,0,.31.37.37,0,0,0,0,.11,2.05,2.05,0,0,0-.37,0h-.87l-.33,0a1.15,1.15,0,0,0-.36,0Z"/><path d="M93,36.26l-.15-.06a2.13,2.13,0,0,0-.3-.09h-.05a3.29,3.29,0,0,1-.43-.09,1.11,1.11,0,0,1-.4-.22l-.07,0c-.17-.12-.18-.15-.07-.33s.19-.26.43-.27h.46a.68.68,0,0,1,.46.23l0,0a.41.41,0,0,1,.12.14l0,.07a.14.14,0,0,0,.08.11h.12c.11,0,.44,0,.49-.09s-.13-.42-.13-.42l-.07-.11a.81.81,0,0,0-.28-.32L93,34.71l-.24-.08a1.9,1.9,0,0,0-.61-.1,1.67,1.67,0,0,0-1.28.58,1.29,1.29,0,0,0-.13.52v0a.46.46,0,0,0,.13.39v0l.06.09a.79.79,0,0,0,.25.29,1.9,1.9,0,0,0,.44.15l.22.06.09,0,.75.24.08,0c.17,0,.28.08.34.28a.6.6,0,0,1-.07.36l0,.08a1.62,1.62,0,0,1-.48.17,1.24,1.24,0,0,1-.31,0,.77.77,0,0,1-.61-.21,1.37,1.37,0,0,1-.13-.2l-.15-.24,0,0s0,0-.09,0h-.29c-.11,0-.23,0-.28.11a.2.2,0,0,0,0,.17,1.19,1.19,0,0,0,.27.39l.14.15a.25.25,0,0,0,0,.07.41.41,0,0,0,.08.12.25.25,0,0,0,.13.06l.09,0,.11.06a.69.69,0,0,0,.34.12H92a3.59,3.59,0,0,0,.47,0l.35,0a1.2,1.2,0,0,0,.89-.58,1,1,0,0,0,.09-1A1.3,1.3,0,0,0,93,36.26Z"/><path d="M76.85,34.71h-.28l-.18,0a.21.21,0,0,0-.15,0,.26.26,0,0,0,0,.16.33.33,0,0,1,0,.1.43.43,0,0,1-.09.16l-.07.09a.61.61,0,0,0-.06.25,1.06,1.06,0,0,1,0,.19,1.55,1.55,0,0,1-.12.22,1.3,1.3,0,0,0-.14.29,2.47,2.47,0,0,1-.1.29l-.06.19a.56.56,0,0,0,0,.12.53.53,0,0,1-.05.18l0,.06a.3.3,0,0,0-.07.1.47.47,0,0,0,0,.12.17.17,0,0,1,0,.12,1,1,0,0,0,0,.1l0,.06a7.54,7.54,0,0,1-.34-.9l-.16-.4a3.38,3.38,0,0,1-.18-.44,1.2,1.2,0,0,1,0-.2.62.62,0,0,0,0-.19,3.08,3.08,0,0,0-.24-.52c-.09-.17-.11-.17-.3-.18h-.1l-.19,0c-.12,0-.2,0-.23.1s0,0,0,0c.11.26.23.53.35.78s.11.25.17.37a12.55,12.55,0,0,1,.48,1.29l.27.75c.13.35.23.69,0,.93l0,0a1.56,1.56,0,0,1-.34.28.43.43,0,0,1-.17,0l-.22,0h-.19v0s0,.08,0,.14a1,1,0,0,0,.1.42.56.56,0,0,0,.3.06,1.44,1.44,0,0,0,.34,0,1.76,1.76,0,0,0,.82-.77,5.42,5.42,0,0,0,.26-.6c0-.09,0-.18.06-.26l0-.19a4.64,4.64,0,0,1,.4-1,6.26,6.26,0,0,0,.43-.92c.07-.19.12-.38.17-.57s.1-.37.16-.54a.17.17,0,0,1,0-.05c.06-.12.08-.18.07-.21A.07.07,0,0,0,76.85,34.71Z"/><path d="M61.21,34.46l0-.05a.35.35,0,0,1,0-.14s0-.05,0-.07a2.11,2.11,0,0,1,0-.21,1.12,1.12,0,0,0,0-.48c0-.15-.18-.17-.32-.17h-.2a1.7,1.7,0,0,1-.35.44l-.24.25-.07.11a.33.33,0,0,1-.11.13.83.83,0,0,1-.27.12c-.08,0-.17.07-.25.12a.59.59,0,0,0-.23.64c0,.07.06.14.13.14a.27.27,0,0,0,.14-.06l.14-.08A2.69,2.69,0,0,0,59.9,35a1.77,1.77,0,0,0,.18-.15c.12-.11.28-.27.37-.27h0s0,0,0,0a.7.7,0,0,1,0,.33.71.71,0,0,0,0,.14l.06,2.09c0,.11,0,.22,0,.35a2,2,0,0,1-.05.91h0s0,0,0,0h0a1.8,1.8,0,0,0,.32.06h0s.27,0,.31-.07a.46.46,0,0,0,0-.26.23.23,0,0,1,0-.07l0-3.21a.45.45,0,0,1,0-.11,1.26,1.26,0,0,0,0-.28A.18.18,0,0,0,61.21,34.46Z"/><path d="M89.39,34.57a.63.63,0,0,0-.19,0,1.14,1.14,0,0,0-.74.4l-.09.09V35c0-.18,0-.34-.23-.35H88a.24.24,0,0,0-.27.18.93.93,0,0,0,0,.29.57.57,0,0,1,0,.13l0,.77c0,.09,0,.19,0,.3a3.22,3.22,0,0,0,0,.76,1.27,1.27,0,0,1,0,.28,1.1,1.1,0,0,1,0,.18.86.86,0,0,1,0,.28.69.69,0,0,0,0,.2.22.22,0,0,0,0,.08c0,.14,0,.26.17.29l.38,0h.22c0-.33,0-.66,0-1V37a1.93,1.93,0,0,0,0-.24,3.45,3.45,0,0,1,0-.46l0-.1a.37.37,0,0,0,0-.14.29.29,0,0,0,0-.1.11.11,0,0,1,0-.08.63.63,0,0,1,.17-.21l.08-.08a.86.86,0,0,0,.07-.1.83.83,0,0,1,.18-.19.18.18,0,0,1,.13,0,.74.74,0,0,1,.25,0l.13,0h.1s.06,0,.1-.09h0a.94.94,0,0,0,.16-.35C89.85,34.74,89.52,34.61,89.39,34.57Z"/><path d="M96.27,37.59l-.13,0-.2,0h-.22a.19.19,0,0,0-.17.07,1,1,0,0,0,0,.56c0,.08,0,.13.08.15l.14,0H96a.42.42,0,0,0,.31-.09v0s0-.08,0-.13C96.38,37.94,96.4,37.66,96.27,37.59Z"/><path d="M28,34.68c-.08,0-.14,0-.17,0a.16.16,0,0,0,0,.15.22.22,0,0,1,0,.14l-.06,0s0,0-.07,0l-.06,0-.18-.12a1.35,1.35,0,0,0-.46-.26h0l-.22,0-.11,0h-.1l-.22,0a2.35,2.35,0,0,0-.46.26l-.2.13a.76.76,0,0,0-.29.41l-.07.13a5.55,5.55,0,0,0-.2.52l0,.12a1.1,1.1,0,0,0,0,.57v0a1.55,1.55,0,0,1,.07.23,2.28,2.28,0,0,0,.24.63l.09.13a2.34,2.34,0,0,0,.28.38,1.05,1.05,0,0,0,.4.19.68.68,0,0,0,.19,0h.22l.15,0,.15,0,.17,0,.15,0a1.08,1.08,0,0,0,.3-.11l.14-.12.17-.13a1.57,1.57,0,0,1-.17,1,.82.82,0,0,1-.73.43h-.2a1,1,0,0,1-.31,0h-.06c-.2-.06-.22-.07-.31-.28l0-.08c-.06-.16-.09-.23-.31-.24h-.09l-.25,0H25v0a1.2,1.2,0,0,1,.08.27.82.82,0,0,0,.18.4,1.74,1.74,0,0,0,.56.32l.16.07a.84.84,0,0,0,.37.07H27a1.08,1.08,0,0,0,.47-.07,2.72,2.72,0,0,0,.46-.34,1.42,1.42,0,0,1,.13-.12,1.11,1.11,0,0,0,.29-.48,2.83,2.83,0,0,0,.05-1.09q0-.2,0-.36c0-.4,0-.78,0-1.21l0-1a.38.38,0,0,1,0-.1.77.77,0,0,0,0-.43A.62.62,0,0,0,28,34.68Zm-2.12,2.79s0-.08,0-.12l-.05-.09a.42.42,0,0,1-.06-.19.17.17,0,0,1,0-.1.61.61,0,0,0,0-.14s0,0,0-.06a.05.05,0,0,1,0,0,.59.59,0,0,1,0-.21.65.65,0,0,0,0-.18v-.07a.78.78,0,0,1,0-.26,1,1,0,0,1,.39-.6,2.78,2.78,0,0,1,.51-.17l.26-.07.12.08a3,3,0,0,1,.54.47,1.06,1.06,0,0,1,.16.77v.1a1.26,1.26,0,0,1-.62,1.22l-.11,0a1.06,1.06,0,0,1-.26.1h0a1,1,0,0,1-.27-.07l-.07,0h0a1.37,1.37,0,0,1-.35-.15A.45.45,0,0,1,25.83,37.47Z"/><path d="M55.67,33.58s0-.09,0-.13,0,0,0-.06a.29.29,0,0,0,0-.21l0,0h0s0,0,0,0,0,0,0,0a0,0,0,0,0,0,0h-.17c-.13,0-.27,0-.4,0H55s0,0-.07,0v0a.49.49,0,0,0,0,.21v1.45l-.21-.14a2.12,2.12,0,0,0-.41-.23,1.16,1.16,0,0,0-.34-.05l-.31,0-.18,0c-.52,0-.91.62-1.16,1.06l0,.05a.58.58,0,0,0-.11.24.45.45,0,0,0,0,.2.77.77,0,0,1,0,.15c0,.08,0,.16,0,.23a.7.7,0,0,0,0,.43,1.14,1.14,0,0,1,.06.25.71.71,0,0,0,.14.39c.08.09.15.19.22.28a3,3,0,0,0,.27.35,1.21,1.21,0,0,0,.9.34,1.55,1.55,0,0,0,.37,0,1.3,1.3,0,0,0,.37-.11c.06,0,.1-.07.15-.1l.12-.09.09,0s0,0,0,.11v0a.34.34,0,0,1,0,.09c0,.07,0,.11.1.14a1.19,1.19,0,0,0,.32,0l.18,0c.09-.05.1-.13.11-.24a1.62,1.62,0,0,0,0-.22v-.11l0-3.7v-.06a.57.57,0,0,1,0-.13l0,0,0-.06A.8.8,0,0,0,55.67,33.58Zm-1.56,4.2s-.08.09-.11.1h-.1a.89.89,0,0,1-.54-.26l-.06-.06c-.17-.15-.38-.34-.37-.55s0-.31,0-.47,0-.22,0-.33,0-.57.16-.66a1,1,0,0,1,.2-.17l.13-.09.1-.11c.06-.07.11-.13.19-.14h.09a.87.87,0,0,1,.63.34l.09.07a.34.34,0,0,0,.09.08.81.81,0,0,1,.21.2.64.64,0,0,1,.06.22s0,.06,0,.09,0,.1,0,.15a.6.6,0,0,1,0,.24.48.48,0,0,1-.07.22l0,.08a2,2,0,0,0-.1.26.56.56,0,0,1,0,.12l0,.11a.73.73,0,0,1-.09.25.69.69,0,0,1-.22.14l-.15.08Z"/><path d="M50.77,38.11a.58.58,0,0,1-.13-.38c0-.2,0-.4,0-.6,0-.37,0-.74,0-1.12v-.24a1.81,1.81,0,0,0,0-.53,1.07,1.07,0,0,0-.58-.64,1.73,1.73,0,0,0-.67-.1h-.1l-.19,0-.22,0h0a1,1,0,0,0-.26.08l-.13.05a1.48,1.48,0,0,0-.76.4h0a.81.81,0,0,0-.21.31.43.43,0,0,0,0,.11,1.38,1.38,0,0,1-.08.27v0h0l.55.05H48c.08,0,.1,0,.16-.14l.08-.13c.13-.23.22-.39.52-.39h.43a.79.79,0,0,1,.28.06l.11,0a.42.42,0,0,1,.2.08,1,1,0,0,1,.13.35c0,.11,0,.25-.05.3a.58.58,0,0,1-.28.08l-.1,0-.44.09-.27,0-.12,0c-.48.09-1.07.2-1.27.67a1.22,1.22,0,0,0-.12.73,1.14,1.14,0,0,0,.38.58l.06.06h0l.18.1a1,1,0,0,0,.33.14h.22l.38,0h0a1.22,1.22,0,0,0,.53-.13l.18-.11A1.53,1.53,0,0,1,50,38h0c0,.13.1.32.21.38a.51.51,0,0,0,.21,0c.15,0,.32,0,.35,0h0c.05,0,.12,0,.15-.09s0-.11-.1-.17Zm-2.61-1a.58.58,0,0,1,.43-.23h.09l.1,0,.16,0h.22a1.92,1.92,0,0,0,.31-.11l.19-.08.15,0c.07,0,.11,0,.11.19a1,1,0,0,1-.39.93.59.59,0,0,1-.31.13l-.15,0a1.82,1.82,0,0,1-.52.08.81.81,0,0,1-.47-.49A.39.39,0,0,1,48.16,37.06Z"/><path d="M33.74,38.54a3.5,3.5,0,0,0,.83-.1h.07a2.46,2.46,0,0,0,.41-.13l.15-.11a.78.78,0,0,1,.18-.11l0,.06c0,.13.09.3.2.34a.41.41,0,0,0,.21,0l.24,0h.19l0,0a.76.76,0,0,0-.06-.27.53.53,0,0,1-.05-.15c0-.11,0-.24,0-.36v-.14c0-.35,0-.65,0-.93s0-.29,0-.43a4.57,4.57,0,0,0,0-.74.74.74,0,0,0-.12-.27l0-.07a.41.41,0,0,0,0-.09.76.76,0,0,0-.21-.28,1.19,1.19,0,0,0-.38-.11l-.17,0a1.12,1.12,0,0,0-.31-.05h-.09a3.56,3.56,0,0,0-.79.08h0a.58.58,0,0,0-.37.17l-.23.23-.07.08c-.18.17-.39.42-.35.57s0,.08.11.1a1.38,1.38,0,0,0,.38.06l.12,0c.07,0,.12-.14.16-.23l0-.08a.8.8,0,0,1,.62-.35h.26a1,1,0,0,1,.64.18.58.58,0,0,1,.22.31.22.22,0,0,1,0,.1.29.29,0,0,0,0,.09s0,.05,0,.09,0,.1,0,.11a2.4,2.4,0,0,1-.38.12h-.24l-.12,0-.08,0a1.84,1.84,0,0,1-.38.08h-.36a1.56,1.56,0,0,0-.84.44,1.43,1.43,0,0,0-.29.68,1.06,1.06,0,0,0,.28.76,1.13,1.13,0,0,0,.79.39Zm1.59-1.95c.09,0,.07.34,0,.46a.54.54,0,0,1,0,.11.31.31,0,0,0-.06.13v0a.27.27,0,0,1-.06.12,2.89,2.89,0,0,1-.56.41.81.81,0,0,1-.39.1h0a1.56,1.56,0,0,1-.54-.11l-.07,0a.45.45,0,0,1-.17-.1,1.52,1.52,0,0,1,0-.33.47.47,0,0,1,.32-.41,3,3,0,0,1,1.05-.24l.24-.08a1,1,0,0,1,.24-.07Z"/><path d="M46,36l0-.11v0s0-.09,0-.14a.91.91,0,0,0-.17-.37,2,2,0,0,0-1.57-.78h-.11a2.28,2.28,0,0,0-.7.22l-.16.06a.92.92,0,0,0-.52.6s-.05.09-.07.14a1.68,1.68,0,0,0-.15.34.9.9,0,0,0,0,.23v.14l0,.18a.86.86,0,0,0,0,.28,1.07,1.07,0,0,0,.06.3l0,.13,0,.13a1,1,0,0,0,.09.31,1.23,1.23,0,0,0,.23.33.25.25,0,0,0,.08,0A.11.11,0,0,1,43,38a.21.21,0,0,1,0,.06l.07.09a1.18,1.18,0,0,0,.74.28h.21l.23,0h.24a.79.79,0,0,0,.28,0A2,2,0,0,0,45.6,38h0c.13-.13.38-.39.37-.59a.17.17,0,0,0-.07-.14.41.41,0,0,0-.26-.07.89.89,0,0,0-.26,0c-.13,0-.2.14-.28.25l-.06.09a.47.47,0,0,1-.25.23,1.37,1.37,0,0,1-.36.11H44.3a1.25,1.25,0,0,1-.65-.23l-.09,0a.94.94,0,0,1-.39-.63.25.25,0,0,1,0-.2.3.3,0,0,1,.22-.06h1.11c.41,0,.84,0,1.26,0h0c.09,0,.16,0,.2-.1a1.25,1.25,0,0,0,0-.51A.36.36,0,0,0,46,36Zm-1.84.13h-.5l-.14,0h-.15c-.07,0-.12,0-.14-.07-.13-.26.26-.61.47-.8l.07-.07a.72.72,0,0,1,.48-.14,1.12,1.12,0,0,1,.55.13c.34.2.39.53.45.9l-.08,0-.06,0-.09,0a0,0,0,0,1,0,0h0a.09.09,0,0,0-.06,0h-.75Z"/><path d="M41,35.63l0-.2a.54.54,0,0,0-.1-.2s0,0,0-.08-.05-.1-.08-.14a.65.65,0,0,0-.36-.37,1.54,1.54,0,0,0-.61-.12h-.17a1.19,1.19,0,0,0-.5.07l-.28.14a1.51,1.51,0,0,1-.28.15,1.33,1.33,0,0,1,0-.4.36.36,0,0,0,0-.1.44.44,0,0,0,0-.15.42.42,0,0,0,0-.12.3.3,0,0,1,0-.08.83.83,0,0,1,0-.22,1,1,0,0,0,0-.17,3.39,3.39,0,0,1,0-.43h0a0,0,0,0,0,0,0H38.3c-.2,0-.45,0-.52.07a.58.58,0,0,0-.07.4v2.55c0,.34,0,.68,0,1v1c0,.12,0,.19,0,.21l0,0h.06l0,0H38l.15,0a.43.43,0,0,0,.18.06h0c.2,0,.19-.19.18-.32v0l-.06-1.82a.15.15,0,0,0,0-.07.74.74,0,0,1,0-.15.34.34,0,0,1,.06-.12.6.6,0,0,0,.06-.11.76.76,0,0,0,0-.15c0-.06,0-.11,0-.15a.83.83,0,0,1,.25-.24,1.09,1.09,0,0,1,.62-.2.67.67,0,0,1,.53.23.63.63,0,0,1,.22.51c0,.15,0,.31,0,.46v.22c0,.16,0,.33,0,.49,0,.33,0,.68,0,1v.06c0,.1,0,.22,0,.27a1.22,1.22,0,0,0,.45.07h0c.19,0,.19-.16.19-.29v-.07l0-1.88a1.46,1.46,0,0,0,0-.42S41,35.68,41,35.63Z"/><path d="M14.6,36.81h0a0,0,0,0,0,0,0h0a1.94,1.94,0,0,0,.21.27,2.18,2.18,0,0,1,.22.31l.1.17a2.89,2.89,0,0,0,.27.44l.11.13a1.46,1.46,0,0,1,.16.19.81.81,0,0,1,.06.13.64.64,0,0,0,.13.22.42.42,0,0,0,.18,0,1.73,1.73,0,0,0,.38,0l.18,0,0,0v0a2.44,2.44,0,0,1-.24-.41c-.07-.14-.15-.28-.23-.41s-.33-.44-.5-.65l-.25-.31-.07-.09-.13-.18,0,0c0-.05-.1-.14-.1-.18s0-.05.08-.08l.05,0a3.2,3.2,0,0,0,.52-.52l.18-.2.13-.15c.14-.16.32-.39.46-.42s0,0,0,0,0,0,0,0a.22.22,0,0,0-.21-.09l-.19,0h-.19l0,0-.07,0h0s-.08.05-.13.1l0,0-.08.09-.37.36c-.24.22-.47.45-.7.68l-.07.07c0,.06-.17.2-.21.2s-.05-.19-.05-.27v-.8c0-.59,0-1.2,0-1.8,0,0,0,0,0,0H14c-.21,0-.5,0-.56.13a.36.36,0,0,0,0,.19v2.81c0,.2,0,.41,0,.61a8.81,8.81,0,0,0,0,1.26c0,.19.14.19.28.19h.17l.17,0c.08,0,.12,0,.15,0a.81.81,0,0,0,0-.39.39.39,0,0,1,0-.09,6.6,6.6,0,0,1,0-.77v-.08c0-.13,0-.14.11-.22l0,0,.07-.07C14.43,36.91,14.53,36.81,14.6,36.81Z"/><path d="M12,36a1.65,1.65,0,0,0-.22-.44,1.58,1.58,0,0,0-.52-.4l-.08,0a2,2,0,0,0-1-.26H9.94c-.06,0-.14,0-.17,0l0,0h0l-.05,0a.54.54,0,0,1-.15.09,1.38,1.38,0,0,0-.53.33,1.65,1.65,0,0,0-.51.87,4.36,4.36,0,0,0-.05.52v0a1.38,1.38,0,0,0,0,.38,1.55,1.55,0,0,1,0,.23,1,1,0,0,0,.18.41l.08.12.06.11a1,1,0,0,0,.22.31,4.22,4.22,0,0,0,.7.38,1.22,1.22,0,0,0,.42.06h.28a.5.5,0,0,0,.28-.09l.73-.47a.57.57,0,0,0,.28-.29,1.3,1.3,0,0,0,.08-.17,3,3,0,0,0,.19-.41,2.84,2.84,0,0,0,0-1.23Zm-.75,1.45c0,.09-.05.19-.08.28a1.92,1.92,0,0,1-1.08.51.58.58,0,0,1-.46-.2l-.06-.06a1,1,0,0,1-.21-.26,1,1,0,0,1-.08-.26l0-.11a3,3,0,0,1,0-.83A1.38,1.38,0,0,1,10,35.39l.19,0a.87.87,0,0,1,.52.21,1.47,1.47,0,0,1,.44.6l0,.07A1.63,1.63,0,0,1,11.21,37.41Z"/><path d="M6.67,35.3a1.44,1.44,0,0,0-1-.41H5.38l-.2,0-.17,0a.37.37,0,0,0-.14.07l-.06,0a.44.44,0,0,1-.16.06.85.85,0,0,0-.17.06,2.18,2.18,0,0,0-.45.35,1.6,1.6,0,0,0-.24.47l0,.08a2,2,0,0,0-.15.51,1.93,1.93,0,0,0,.05.47c0,.08,0,.16,0,.24s0,.1,0,.14a1.59,1.59,0,0,0,.06.37,1.53,1.53,0,0,0,.37.52,1.82,1.82,0,0,0,1,.52h.19c1.48,0,1.8-.91,1.86-1.31a2.86,2.86,0,0,0,0-1.11A2.16,2.16,0,0,0,6.67,35.3ZM4.49,37.65a.73.73,0,0,1,0-.3.53.53,0,0,0,0-.13l0-.21a1.26,1.26,0,0,1,0-.51,2.24,2.24,0,0,1,.28-.71,1,1,0,0,1,.62-.35h.07a1.4,1.4,0,0,1,.7.18,1.29,1.29,0,0,1,.15.17s.07.11.11.15a.24.24,0,0,1,.09.19s0,.08,0,.14a.76.76,0,0,1,0,.11,1,1,0,0,1,.07.24,2.5,2.5,0,0,1,0,.38,1.68,1.68,0,0,1-.28.84,1.12,1.12,0,0,1-.49.36l-.14.08A1.08,1.08,0,0,1,4.78,38l0-.05A.84.84,0,0,1,4.49,37.65Z"/><path d="M23.52,36.52v-.05a2,2,0,0,0,0-.49,1.49,1.49,0,0,1,0-.21,1.23,1.23,0,0,0,0-.19.93.93,0,0,0-.1-.25l0,0a1,1,0,0,0-.47-.39l-.15-.08a1.14,1.14,0,0,0-.51-.17h-.08a2.31,2.31,0,0,0-1.17.53v-.08c0-.15,0-.3-.18-.32h-.23c-.16,0-.26,0-.29.15a1.27,1.27,0,0,0,0,.39c0,.06,0,.11,0,.16v1.16c0,.1,0,.21,0,.32s0,.3,0,.46,0,.61,0,.91v0c0,.09,0,.18.11.22a.35.35,0,0,0,.16,0,1.24,1.24,0,0,0,.27,0H21s0,0,0,0c0-.44,0-.88,0-1.32,0-.14,0-.28,0-.43v-.61a.32.32,0,0,1,.09-.29v0a1.1,1.1,0,0,0,.09-.14.49.49,0,0,1,.14-.19A1,1,0,0,1,22,35.3h0a1,1,0,0,1,.59.15.46.46,0,0,1,.09.24l0,.14,0,.09a.25.25,0,0,1,.05.13,1.76,1.76,0,0,1,0,.32,1.48,1.48,0,0,0,0,.21c0,.19,0,.39,0,.59a9.45,9.45,0,0,0,0,1.19v0c0,.09,0,.17.06.2s0,0,.11,0a1,1,0,0,0,.23,0,.13.13,0,0,0,.08,0l.06,0h.08a.05.05,0,0,0,0,0,.77.77,0,0,0,.1-.35,7.92,7.92,0,0,0,0-1.09C23.52,36.88,23.52,36.7,23.52,36.52Z"/><path d="M2.18,35.06a1,1,0,0,1,0-.38c0-.06,0-.11,0-.16a1.93,1.93,0,0,1,0-.24,4,4,0,0,0,0-.49c0-.19-.07-.21-.25-.23l-.1,0-.2,0c-.13,0-.21,0-.23.16a.29.29,0,0,0,.05.18l0,.09a1.08,1.08,0,0,1,0,.18v.08c0,.07,0,.13,0,.2v.1c0,.27,0,.53,0,.8,0,.54,0,1.1,0,1.65,0,.31,0,.62,0,.92,0,.15,0,.31,0,.46s0,.06,0,.1,0,.23.12.28a.61.61,0,0,0,.22,0h.37v0l.07-2.88v-.18c0-.11,0-.23,0-.35a.2.2,0,0,0,0-.15A.23.23,0,0,1,2.18,35.06Z"/><path d="M18.63,35.16c0-.14,0-.27-.13-.31a.5.5,0,0,0-.18,0,1,1,0,0,0-.42.07s0,0,0,0a3.16,3.16,0,0,1,0,.69v2a5.8,5.8,0,0,0,0,.59s0,.07,0,.1,0,.29.19.34h.07a.86.86,0,0,0,.21,0,.79.79,0,0,1,.2,0h0v-.68c0-.5,0-1,0-1.53,0-.14,0-.28,0-.41s0-.42,0-.64Z"/><path d="M18.28,33.37a.52.52,0,0,0-.35.09,1.06,1.06,0,0,0,0,.52,1.49,1.49,0,0,1,0,.17,0,0,0,0,0,0,0h.15l.23,0a.42.42,0,0,0,.27-.07.89.89,0,0,0,0-.68A.5.5,0,0,0,18.28,33.37Z"/></svg>