<svg xmlns="http://www.w3.org/2000/svg" viewBox="0 0 512 512" width="512px" height="512px"><path d="M366.27,512H145.72C65.37,512,0,446.63,0,366.28V145.72C0,65.37,65.37,0,145.72,0H366.27C446.63,0,512,65.37,512,145.72V366.28C512,446.63,446.63,512,366.27,512ZM145.72,43.89A102,102,0,0,0,43.88,145.72V366.28A102,102,0,0,0,145.72,468.12H366.27A102,102,0,0,0,468.11,366.28V145.72A102,102,0,0,0,366.27,43.89Z"/><path d="M256,387.09A131.23,131.23,0,0,1,124.91,256c0-72.28,58.8-131.09,131.09-131.09S387.09,183.72,387.09,256A131.23,131.23,0,0,1,256,387.09Zm0-218.3A87.21,87.21,0,1,0,343.21,256,87.31,87.31,0,0,0,256,168.79Z"/><path d="M424.23,117.4a31.51,31.51,0,1,1-31.51-31.5A31.51,31.51,0,0,1,424.23,117.4Z"/></svg>