<svg xmlns="http://www.w3.org/2000/svg" viewBox="0 0 512 512" width="512px" height="512px"><path d="M412.88,261.46a20.68,20.68,0,0,0-20.68,20.69V439a31.65,31.65,0,0,1-31.61,31.62H73A31.65,31.65,0,0,1,41.36,439V151.41A31.65,31.65,0,0,1,73,119.8H229.85a20.68,20.68,0,1,0,0-41.36H73a73.06,73.06,0,0,0-73,73V439a73.06,73.06,0,0,0,73,73H360.58a73.06,73.06,0,0,0,73-73V282.15A20.68,20.68,0,0,0,412.88,261.46Z"/><path d="M491.32,0H334.44a20.68,20.68,0,0,0,0,41.36h136.2v136.2a20.68,20.68,0,0,0,41.36,0V20.68A20.68,20.68,0,0,0,491.32,0Z"/><path d="M505.94,6.06a20.68,20.68,0,0,0-29.25,0L189.08,293.67a20.68,20.68,0,1,0,29.25,29.25L505.94,35.31A20.68,20.68,0,0,0,505.94,6.06Z"/></svg>